<svg width="124" height="16" viewBox="0 0 124 16" fill="none" xmlns="http://www.w3.org/2000/svg">
<g clip-path="url(#clip0_1628_22169)">
<path fill-rule="evenodd" clip-rule="evenodd" d="M10.8112 10.9065C10.1112 11.4065 9.31118 11.7065 8.01118 11.6065C5.71118 11.5065 4.41118 9.80655 4.41118 7.80655C4.41118 5.80655 5.81118 4.00655 8.01118 4.00655C9.31118 4.00655 10.0112 4.20655 10.7112 4.70655L13.0112 1.70655C11.4928 0.546751 9.62085 -0.0536966 7.71118 0.00654589C6.67986 -0.0368604 5.65086 0.135978 4.69032 0.513955C3.72978 0.891931 2.85894 1.46668 2.13376 2.20128C1.40859 2.93587 0.845117 3.81405 0.479566 4.77939C0.114015 5.74473 -0.045533 6.77587 0.0111765 7.80655C0.0111765 12.2065 3.21118 15.4065 7.71118 15.4065C9.71118 15.4065 11.6112 15.0065 12.9112 13.9065L10.8112 10.9065ZM69.2112 7.70655C69.2112 5.50655 67.3112 3.70655 63.8112 3.70655C62.0112 3.70655 60.7112 4.00655 59.9112 4.30655L60.6112 7.20655C64.5112 6.00655 65.8112 7.30655 65.6112 8.90655C65.6112 8.90655 64.1112 8.10655 62.4112 8.10655C60.0112 8.10655 58.6112 9.80655 58.6112 11.7065C58.6112 14.1065 60.1112 15.3065 62.4112 15.3065C63.0238 15.3183 63.631 15.1892 64.1858 14.9291C64.7407 14.669 65.2283 14.285 65.6112 13.8065V15.0065H69.2112V7.80655V7.70655ZM63.6112 12.7065C62.7112 12.7065 62.3112 12.2065 62.3112 11.4065C62.3112 10.7065 62.9112 10.2065 63.6112 10.2065C64.5112 10.2065 65.0112 10.3065 65.5112 10.5065H65.6112C65.6112 11.5065 65.0112 12.7065 63.6112 12.7065ZM13.3112 9.60655C13.3112 6.20655 15.9112 3.80655 19.3112 3.80655C22.7112 3.80655 25.3112 6.20655 25.3112 9.60655C25.3112 13.0065 22.7112 15.4065 19.3112 15.4065C15.9112 15.4065 13.3112 13.0065 13.3112 9.60655ZM17.1112 9.60655C17.1112 11.1065 18.0112 12.1065 19.3112 12.1065C20.6112 12.1065 21.5112 11.0065 21.5112 9.60655C21.5112 8.20655 20.6112 7.20655 19.3112 7.20655C18.0112 7.20655 17.1112 8.20655 17.1112 9.60655ZM33.3112 3.80655C32.0112 3.80655 30.8112 4.50655 30.0112 5.50655V4.10655H26.5112V15.1065H30.0112V8.70655C30.0112 8.2822 30.1797 7.87523 30.4798 7.57517C30.7799 7.27512 31.1868 7.10655 31.6112 7.10655C32.0355 7.10655 32.4425 7.27512 32.7425 7.57517C33.0426 7.87523 33.2112 8.2822 33.2112 8.70655V15.1065H36.8112V7.30655C36.8112 5.30655 35.5112 3.80655 33.3112 3.80655ZM53.3112 10.4065C53.3112 11.4065 54.0112 12.1065 55.3112 12.1065C55.8112 12.1065 56.3112 11.9065 56.8112 11.7065L57.8112 14.5065C57.1112 14.9065 55.7112 15.5065 54.1112 15.5065C51.4112 15.5065 49.8112 14.1065 49.8112 12.2065V1.20655H53.3112V4.20655H56.7112L56.5112 7.20655H53.3112V10.4065ZM58.3112 14.1065V14.2065V14.1065ZM39.3112 11.8065L38.0112 13.9065C39.5112 14.9065 41.3112 15.5065 43.3112 15.5065C46.3112 15.5065 48.0112 14.0065 48.0112 11.6065C48.0112 9.30655 46.4112 8.60655 43.7112 7.80655C42.7112 7.50655 42.4112 7.20655 42.4112 6.80655C42.4449 6.66033 42.519 6.52654 42.6251 6.42044C42.7312 6.31435 42.865 6.24023 43.0112 6.20655C44.0112 6.00655 45.4112 6.50655 46.6112 7.20655L47.8112 5.10655C46.5112 4.30655 44.8112 3.70655 43.1112 3.70655C40.3112 3.70655 38.4112 5.20655 38.4112 7.70655C38.4112 9.90655 40.1112 10.7065 42.8112 11.4065C43.8112 11.7065 44.0112 12.1065 44.0112 12.3065C44.0112 12.5065 43.8112 12.8065 43.4112 12.9065C41.93 12.9943 40.4592 12.6091 39.2112 11.8065H39.3112Z" fill="#0078D2"/>
<path style="mix-blend-mode:overlay" fill-rule="evenodd" clip-rule="evenodd" d="M10.8112 10.9065C10.1112 11.4065 9.31118 11.7065 8.01118 11.6065C5.71118 11.5065 4.41118 9.80655 4.41118 7.80655C4.41118 5.80655 5.81118 4.00655 8.01118 4.00655C9.31118 4.00655 10.0112 4.20655 10.7112 4.70655L13.0112 1.70655C11.4928 0.546751 9.62085 -0.0536966 7.71118 0.00654589C6.67986 -0.0368604 5.65086 0.135978 4.69032 0.513955C3.72978 0.891931 2.85894 1.46668 2.13376 2.20128C1.40859 2.93587 0.845117 3.81405 0.479566 4.77939C0.114015 5.74473 -0.045533 6.77587 0.0111765 7.80655C0.0111765 12.2065 3.21118 15.4065 7.71118 15.4065C9.71118 15.4065 11.6112 15.0065 12.9112 13.9065L10.8112 10.9065ZM69.2112 7.70655C69.2112 5.50655 67.3112 3.70655 63.8112 3.70655C62.0112 3.70655 60.7112 4.00655 59.9112 4.30655L60.6112 7.20655C64.5112 6.00655 65.8112 7.30655 65.6112 8.90655C65.6112 8.90655 64.1112 8.10655 62.4112 8.10655C60.0112 8.10655 58.6112 9.80655 58.6112 11.7065C58.6112 14.1065 60.1112 15.3065 62.4112 15.3065C63.0238 15.3183 63.631 15.1892 64.1858 14.9291C64.7407 14.669 65.2283 14.285 65.6112 13.8065V15.0065H69.2112V7.80655V7.70655ZM63.6112 12.7065C62.7112 12.7065 62.3112 12.2065 62.3112 11.4065C62.3112 10.7065 62.9112 10.2065 63.6112 10.2065C64.5112 10.2065 65.0112 10.3065 65.5112 10.5065H65.6112C65.6112 11.5065 65.0112 12.7065 63.6112 12.7065ZM13.3112 9.60655C13.3112 6.20655 15.9112 3.80655 19.3112 3.80655C22.7112 3.80655 25.3112 6.20655 25.3112 9.60655C25.3112 13.0065 22.7112 15.4065 19.3112 15.4065C15.9112 15.4065 13.3112 13.0065 13.3112 9.60655ZM17.1112 9.60655C17.1112 11.1065 18.0112 12.1065 19.3112 12.1065C20.6112 12.1065 21.5112 11.0065 21.5112 9.60655C21.5112 8.20655 20.6112 7.20655 19.3112 7.20655C18.0112 7.20655 17.1112 8.20655 17.1112 9.60655ZM33.3112 3.80655C32.0112 3.80655 30.8112 4.50655 30.0112 5.50655V4.10655H26.5112V15.1065H30.0112V8.70655C30.0112 8.2822 30.1797 7.87523 30.4798 7.57517C30.7799 7.27512 31.1868 7.10655 31.6112 7.10655C32.0355 7.10655 32.4425 7.27512 32.7425 7.57517C33.0426 7.87523 33.2112 8.2822 33.2112 8.70655V15.1065H36.8112V7.30655C36.8112 5.30655 35.5112 3.80655 33.3112 3.80655ZM53.3112 10.4065C53.3112 11.4065 54.0112 12.1065 55.3112 12.1065C55.8112 12.1065 56.3112 11.9065 56.8112 11.7065L57.8112 14.5065C57.1112 14.9065 55.7112 15.5065 54.1112 15.5065C51.4112 15.5065 49.8112 14.1065 49.8112 12.2065V1.20655H53.3112V4.20655H56.7112L56.5112 7.20655H53.3112V10.4065ZM39.3112 11.8065L38.0112 13.9065C39.5112 14.9065 41.3112 15.5065 43.3112 15.5065C46.3112 15.5065 48.0112 14.0065 48.0112 11.6065C48.0112 9.30655 46.4112 8.60655 43.7112 7.80655C42.7112 7.50655 42.4112 7.20655 42.4112 6.80655C42.4449 6.66033 42.519 6.52654 42.6251 6.42044C42.7312 6.31435 42.865 6.24023 43.0112 6.20655C44.0112 6.00655 45.4112 6.50655 46.6112 7.20655L47.8112 5.10655C46.5112 4.30655 44.8112 3.70655 43.1112 3.70655C40.3112 3.70655 38.4112 5.20655 38.4112 7.70655C38.4112 9.90655 40.1112 10.7065 42.8112 11.4065C43.8112 11.7065 44.0112 12.1065 44.0112 12.3065C44.0112 12.5065 43.8112 12.8065 43.4112 12.9065C41.93 12.9943 40.4592 12.6091 39.2112 11.8065H39.3112Z" fill="url(#paint0_linear_1628_22169)"/>
<path d="M80.2299 15.2611H82.388V3.02541H86.4253V1.14889H76.2112V3.02541H80.2299V15.2611Z" fill="#5C6F7A"/>
<path d="M89.5556 15.51C90.7835 15.51 91.8812 14.8781 92.8115 14.0547H92.8859L93.0533 15.2611H94.8022V8.92304C94.8022 6.12741 93.6301 4.46152 91.0812 4.46152C89.444 4.46152 88.0114 5.15085 86.9509 5.84019L87.7509 7.33374C88.6254 6.7593 89.63 6.26144 90.7091 6.26144C92.2161 6.26144 92.644 7.33374 92.6626 8.55922C88.4021 9.03793 86.5416 10.206 86.5416 12.4654C86.5416 14.3228 87.7881 15.51 89.5556 15.51ZM90.2068 13.7675C89.2951 13.7675 88.6068 13.3463 88.6068 12.3123C88.6068 11.1251 89.63 10.3209 92.6626 9.95704V12.542C91.8254 13.3271 91.0998 13.7675 90.2068 13.7675Z" fill="#5C6F7A"/>
<path d="M102.601 15.51C104.908 15.51 107.011 13.442 107.011 9.823C107.011 6.58696 105.541 4.46152 102.955 4.46152C101.876 4.46152 100.778 5.05511 99.9036 5.84019L99.978 4.04026V0H97.8385V15.2611H99.5129L99.7176 14.1696H99.7734C100.648 15.0121 101.671 15.51 102.601 15.51ZM102.192 13.6909C101.559 13.6909 100.759 13.442 99.978 12.7335V7.58267C100.815 6.721 101.597 6.29974 102.397 6.29974C104.108 6.29974 104.797 7.65926 104.797 9.8613C104.797 12.3314 103.68 13.6909 102.192 13.6909Z" fill="#5C6F7A"/>
<path d="M111.66 15.51C112.2 15.51 112.553 15.4334 112.814 15.3377L112.535 13.6718C112.349 13.7101 112.274 13.7101 112.181 13.7101C111.921 13.7101 111.679 13.4994 111.679 12.9059V0H109.539V12.791C109.539 14.4951 110.116 15.51 111.66 15.51Z" fill="#5C6F7A"/>
<path d="M119.341 15.51C120.681 15.51 121.853 15.0504 122.802 14.3994L122.058 13.0016C121.313 13.4994 120.532 13.7867 119.62 13.7867C117.853 13.7867 116.625 12.5803 116.458 10.5698H123.1C123.155 10.3017 123.211 9.88044 123.211 9.44004C123.211 6.47207 121.741 4.46152 119.025 4.46152C116.644 4.46152 114.355 6.58696 114.355 9.99533C114.355 13.4803 116.569 15.51 119.341 15.51ZM116.439 9.03793C116.644 7.1997 117.779 6.18485 119.062 6.18485C120.551 6.18485 121.351 7.238 121.351 9.03793H116.439Z" fill="#5C6F7A"/>
</g>
<defs>
<linearGradient id="paint0_linear_1628_22169" x1="51.5112" y1="-23.7935" x2="14.9112" y2="38.4065" gradientUnits="userSpaceOnUse">
<stop stop-color="white" stop-opacity="0.6"/>
<stop offset="1" stop-color="white" stop-opacity="0"/>
</linearGradient>
<clipPath id="clip0_1628_22169">
<rect width="123.211" height="15.51" fill="white"/>
</clipPath>
</defs>
</svg>
